<?xml version="1.0" encoding="UTF-8" standalone="no"?>
<!-- Created with Inkscape (http://www.inkscape.org/) -->

<svg
   xmlns:dc="http://purl.org/dc/elements/1.1/"
   xmlns:cc="http://creativecommons.org/ns#"
   xmlns:rdf="http://www.w3.org/1999/02/22-rdf-syntax-ns#"
   xmlns:svg="http://www.w3.org/2000/svg"
   xmlns="http://www.w3.org/2000/svg"
   xmlns:sodipodi="http://sodipodi.sourceforge.net/DTD/sodipodi-0.dtd"
   xmlns:inkscape="http://www.inkscape.org/namespaces/inkscape"
   version="1.1"
   id="svg2"
   width="1000"
   height="1000"
   viewBox="0 0 1000 1000"
   sodipodi:docname="zoa.svg"
   inkscape:version="0.92.4 (5da689c313, 2019-01-14)"
   inkscape:export-filename="/mount/Shared/Projects/zoa/zoa.png"
   inkscape:export-xdpi="96"
   inkscape:export-ydpi="96">
  <metadata
     id="metadata8">
    <rdf:RDF>
      <cc:Work
         rdf:about="">
        <dc:format>image/svg+xml</dc:format>
        <dc:type
           rdf:resource="http://purl.org/dc/dcmitype/StillImage" />
        <dc:title />
      </cc:Work>
    </rdf:RDF>
  </metadata>
  <defs
     id="defs6" />
  <sodipodi:namedview
     pagecolor="#ffffff"
     bordercolor="#666666"
     borderopacity="1"
     objecttolerance="10"
     gridtolerance="10"
     guidetolerance="10"
     inkscape:pageopacity="0"
     inkscape:pageshadow="2"
     inkscape:window-width="3840"
     inkscape:window-height="2104"
     id="namedview4"
     showgrid="false"
     inkscape:snap-bbox="true"
     inkscape:object-paths="true"
     inkscape:snap-intersection-paths="true"
     inkscape:snap-smooth-nodes="true"
     inkscape:snap-midpoints="true"
     inkscape:snap-bbox-edge-midpoints="true"
     inkscape:snap-center="true"
     inkscape:bbox-nodes="true"
     inkscape:bbox-paths="true"
     inkscape:snap-bbox-midpoints="true"
     inkscape:snap-object-midpoints="true"
     inkscape:zoom="1.4142136"
     inkscape:cx="844.46538"
     inkscape:cy="385.0841"
     inkscape:window-x="0"
     inkscape:window-y="28"
     inkscape:window-maximized="1"
     inkscape:current-layer="svg2"
     showguides="true"
     inkscape:guide-bbox="true"
     inkscape:snap-to-guides="true"
     inkscape:snap-grids="true"
     inkscape:snap-others="true"
     inkscape:snap-nodes="true"
     fit-margin-top="0"
     fit-margin-left="0"
     fit-margin-right="0"
     fit-margin-bottom="0"
     inkscape:snap-page="true">
    <sodipodi:guide
       position="511.76101,684.53711"
       orientation="1,0"
       id="guide4624"
       inkscape:locked="false" />
    <sodipodi:guide
       position="521.76095,683.53711"
       orientation="1,0"
       id="guide4626"
       inkscape:locked="false" />
    <sodipodi:guide
       position="540.76095,679.00056"
       orientation="1,0"
       id="guide4628"
       inkscape:locked="false" />
    <sodipodi:guide
       position="550.76095,656.46153"
       orientation="1,0"
       id="guide4630"
       inkscape:locked="false" />
    <sodipodi:guide
       position="428.28699,438.91675"
       orientation="-0.70710678,0.70710678"
       id="guide4634"
       inkscape:locked="false" />
    <sodipodi:guide
       position="428.28699,457.84961"
       orientation="1,0"
       id="guide4638"
       inkscape:locked="false" />
    <sodipodi:guide
       position="556.26095,747.65728"
       orientation="-0.70710678,0.70710678"
       id="guide4640"
       inkscape:locked="false" />
    <sodipodi:guide
       position="1311.8687,465.98464"
       orientation="1,0"
       id="guide4642"
       inkscape:locked="false" />
    <sodipodi:guide
       position="693.81151,211.53711"
       orientation="-0.70710678,0.70710678"
       id="guide4644"
       inkscape:locked="false" />
    <sodipodi:guide
       position="865.79611,320.63846"
       orientation="-0.70710678,0.70710678"
       id="guide4646"
       inkscape:locked="false" />
    <sodipodi:guide
       position="492.68006,539.52375"
       orientation="1,0"
       id="guide4648"
       inkscape:locked="false" />
    <sodipodi:guide
       position="211.01095,345.53711"
       orientation="0,1"
       id="guide4650"
       inkscape:locked="false" />
    <sodipodi:guide
       position="260.99225,409.7829"
       orientation="0,1"
       id="guide4652"
       inkscape:locked="false" />
    <sodipodi:guide
       position="756.5501,359.79282"
       orientation="1,0"
       id="guide4654"
       inkscape:locked="false" />
    <sodipodi:guide
       position="929.305,502.40064"
       orientation="1,0"
       id="guide4656"
       inkscape:locked="false" />
    <sodipodi:guide
       position="865.29445,521.98711"
       orientation="-0.70710678,0.70710678"
       id="guide4658"
       inkscape:locked="false" />
    <sodipodi:guide
       position="692.305,335.03711"
       orientation="1,0"
       id="guide4660"
       inkscape:locked="false" />
    <sodipodi:guide
       position="756.5501,686.49379"
       orientation="-0.70710678,0.70710678"
       id="guide4662"
       inkscape:locked="false" />
    <sodipodi:guide
       position="836.30431,522.53711"
       orientation="0,1"
       id="guide4664"
       inkscape:locked="false" />
    <sodipodi:guide
       position="801.805,458.57044"
       orientation="0,1"
       id="guide4666"
       inkscape:locked="false" />
    <sodipodi:guide
       position="836.305,489.02148"
       orientation="1,0"
       id="guide4668"
       inkscape:locked="false" />
    <sodipodi:guide
       position="846.305,487.56836"
       orientation="1,0"
       id="guide4670"
       inkscape:locked="false" />
    <sodipodi:guide
       position="836.305,338.53711"
       orientation="0,1"
       id="guide4672"
       inkscape:locked="false" />
    <sodipodi:guide
       position="865.79604,341.94268"
       orientation="1,0"
       id="guide4674"
       inkscape:locked="false" />
    <sodipodi:guide
       position="756.5501,686.49379"
       orientation="0,1"
       id="guide4676"
       inkscape:locked="false" />
    <sodipodi:guide
       position="210.76095,329.58768"
       orientation="0,1"
       id="guide4678"
       inkscape:locked="false" />
    <sodipodi:guide
       position="401.75186,748.53711"
       orientation="0,1"
       id="guide4680"
       inkscape:locked="false" />
    <sodipodi:guide
       position="81.674677,407.33573"
       orientation="-0.70710678,0.70710678"
       id="guide4686"
       inkscape:locked="false" />
    <sodipodi:guide
       position="88.246943,400.76347"
       orientation="-0.70710678,0.70710678"
       id="guide4692"
       inkscape:locked="false" />
    <sodipodi:guide
       position="323.25632,683.04469"
       orientation="-0.70710678,0.70710678"
       id="guide4694"
       inkscape:locked="false" />
    <sodipodi:guide
       position="401.75186,748.53711"
       orientation="-0.70710678,0.70710678"
       id="guide4696"
       inkscape:locked="false" />
    <sodipodi:guide
       position="492.68006,759.125"
       orientation="-0.70710678,0.70710678"
       id="guide4698"
       inkscape:locked="false" />
    <sodipodi:guide
       position="380.46212,694.17773"
       orientation="0.70710678,0.70710678"
       id="guide4700"
       inkscape:locked="false" />
    <sodipodi:guide
       position="155.82048,748.53711"
       orientation="-0.70710678,0.70710678"
       id="guide4702"
       inkscape:locked="false" />
    <sodipodi:guide
       position="94.218765,394.79163"
       orientation="0.70710678,0.70710678"
       id="guide4704"
       inkscape:locked="false" />
    <sodipodi:guide
       position="382.9495,393.57926"
       orientation="0,1"
       id="guide4706"
       inkscape:locked="false" />
    <sodipodi:guide
       position="174.75632,605.5001"
       orientation="-0.70710678,0.70710678"
       id="guide4708"
       inkscape:locked="false" />
    <sodipodi:guide
       position="121.05982,400.6475"
       orientation="-0.70710678,0.70710678"
       id="guide4712"
       inkscape:locked="false" />
    <sodipodi:guide
       position="865.79604,686.49379"
       orientation="-0.70710678,0.70710678"
       id="guide4716"
       inkscape:locked="false" />
    <sodipodi:guide
       position="257.32812,571.04492"
       orientation="-0.70710678,0.70710678"
       id="guide52"
       inkscape:locked="false" />
    <sodipodi:guide
       position="266.72266,567.29492"
       orientation="-0.70710678,0.70710678"
       id="guide54"
       inkscape:locked="false" />
    <sodipodi:guide
       position="1000,160"
       orientation="0.70710678,0.70710678"
       id="guide56"
       inkscape:locked="false" />
    <sodipodi:guide
       position="1000,1160"
       orientation="-0.70710678,0.70710678"
       id="guide60"
       inkscape:locked="false" />
    <sodipodi:guide
       position="80,160"
       orientation="1,0"
       id="guide53"
       inkscape:locked="false" />
    <sodipodi:guide
       position="1000,240"
       orientation="0,1"
       id="guide55"
       inkscape:locked="false" />
    <sodipodi:guide
       position="920,160"
       orientation="1,0"
       id="guide57"
       inkscape:locked="false" />
    <sodipodi:guide
       position="1000,1080"
       orientation="0,1"
       id="guide59"
       inkscape:locked="false" />
    <sodipodi:guide
       position="1000,160"
       orientation="0,1"
       id="guide61"
       inkscape:locked="false" />
    <sodipodi:guide
       position="1000,79.999999"
       orientation="0,1"
       id="guide71"
       inkscape:locked="false" />
  </sodipodi:namedview>
  <path
     style="fill:#000000;stroke:none;stroke-width:50;stroke-miterlimit:4;stroke-dasharray:none;paint-order:markers stroke fill"
     d="m 492.67969,240.875 -64.39258,64.39258 v 48.3789 L 380.46289,305.82227 257.32812,428.95508 234.02344,419.19141 401.75195,251.46289 H 278.78711 155.82031 l -32.03125,31.99609 -30.011716,30.04688 113.728516,1.95312 119.19922,-1.95312 L 224.84961,415.36133 174.75586,394.5 122.53125,446.72461 196.7013,477.63959 81.674677,592.66427 88.246943,599.23653 205.99622,481.48725 229.20703,491.20508 121.06055,599.35156 50,670.41211 h 268.98047 l 63.96875,-63.99219 H 127.13477 l 0.49609,-0.49609 110.85547,-110.85547 52.93359,22.11523 30.49024,-30.43164 c 3.68422,24.66746 11.69926,48.93339 24.23437,71.54883 45.65158,82.3631 139.31656,121.54168 226.85742,94.89258 87.54086,-26.6491 146.31464,-112.23324 142.35157,-207.28711 -3.96307,-95.05387 -69.63826,-174.99019 -159.06641,-193.60742 l -63.54883,63.63086 z m 245.22851,10.58789 -62.04492,62.04297 h 80.6875 79.75391 V 477.46289 H 756.55078 V 313.50586 l -50.25781,50.25976 c 11.16074,25.12458 17.84214,52.77066 19.05078,81.75977 1.9267,46.21158 -10.27044,90.28605 -33.03711,127.08594 V 573.83008 790 l 64.24414,-64.27539 V 541.42969 h 45.32813 l 34.42773,-34.42774 -0.002,163.41016 h 10 l 0.002,-173.41016 19.49024,-19.49023 v 201.84961 l 63.5,-63.5 0.01,-302.35547 h -63.51 v 163.95703 h -19.49024 l -0.002,-163.95703 h 19.49219 l 62.04301,-62.04297 z m -216.14648,64.83984 c 6.4681,0.24247 12.81293,1.02457 19,2.31055 v 278.05274 c -6.18707,1.28595 -12.5319,2.06808 -19,2.31054 z m -10,0.0625 v 282.55469 c -31.8036,-1.5655 -60.55701,-16.2199 -82.04883,-39.26172 l 62.96875,-62.96875 0.0566,-177.78515 c 6.19021,-1.36596 12.54473,-2.21998 19.02344,-2.53907 z m 39,4.80274 c 53.78962,16.33601 93.3457,71.24206 93.3457,136.47265 0,65.2306 -39.55608,120.13515 -93.3457,136.47071 z m -206.77734,34.27539 c -16.11124,30.61635 -24.414,64.85532 -24.43946,99.35742 l -52.82226,-22.0957 z m 84.30273,1.64258 0.004,201.02539 c -23.17273,-25.62967 -37.5293,-61.17541 -37.5293,-100.47071 0,-39.49821 14.14154,-74.89541 37.52539,-100.55468 z"
     id="path4573"
     inkscape:connector-curvature="0"
     sodipodi:nodetypes="ccccccccccccccccccccccccccccccssscccccccccccsccccccccccccccccccccccccccccccccccccccccccsccc" />
  <g
     aria-label="Zeitung ohne Akronym"
     transform="translate(0,-160)"
     style="font-style:normal;font-weight:normal;font-size:66.66666412px;line-height:1.25;font-family:sans-serif;text-align:center;letter-spacing:0px;word-spacing:0px;text-anchor:middle;fill:#000000;fill-opacity:1;stroke:none"
     id="flowRoot63">
    <path
       d="m 109.46217,1052.7267 24.42,-24.5667 V 1016.5 H 91.202173 v 12.1733 H 115.47551 L 90.90884,1053.24 v 11.66 h 43.78 v -12.1733 z"
       style="font-style:normal;font-variant:normal;font-weight:900;font-stretch:normal;font-size:73.33333588px;font-family:'Work Sans';-inkscape-font-specification:'Work Sans Heavy';text-align:center;text-anchor:middle"
       id="path60" />
    <path
       d="m 177.05489,1045.3933 c 0,-10.7066 -7.04,-17.8933 -19.50667,-17.8933 -12.17334,0 -20.31334,6.8933 -20.31334,19.0667 0,12.1733 7.7,19.0666 20.97334,19.0666 8.21333,0 16.5,-3.4466 18.18667,-10.7066 l -13.56667,-3.6667 c -0.51333,1.98 -1.90667,3.1533 -4.4,3.1533 -2.86,0 -4.54667,-0.8066 -5.06,-4.62 h 23.32 c 0.22,-0.9533 0.36667,-2.7866 0.36667,-4.4 z m -19.43334,-6.7466 c 2.42,0 3.37334,1.6866 3.66667,4.9133 h -7.92 c 0.44,-3.6667 1.76,-4.9133 4.25333,-4.9133 z"
       style="font-style:normal;font-variant:normal;font-weight:900;font-stretch:normal;font-size:73.33333588px;font-family:'Work Sans';-inkscape-font-specification:'Work Sans Heavy';text-align:center;text-anchor:middle"
       id="path62" />
    <path
       d="m 189.60061,1025.8867 c 6.67334,0 9.16667,-1.9067 9.16667,-7.04 0,-5.1334 -2.49333,-7.04 -9.16667,-7.04 -6.67333,0 -9.16666,1.9066 -9.16666,7.04 0,5.1333 2.49333,7.04 9.16666,7.04 z m 8.43334,2.3466 H 181.16728 V 1064.9 h 16.86667 z"
       style="font-style:normal;font-variant:normal;font-weight:900;font-stretch:normal;font-size:73.33333588px;font-family:'Work Sans';-inkscape-font-specification:'Work Sans Heavy';text-align:center;text-anchor:middle"
       id="path64" />
    <path
       d="m 232.69083,1053.6067 c -1.32,0.66 -2.64,0.9533 -4.62,0.9533 -3.00667,0 -4.40001,-1.2467 -4.40001,-4.62 v -10.34 h 9.24001 v -11.3667 h -9.24001 v -12.4666 l -16.86666,4.6933 v 7.7733 h -5.64667 V 1039.6 h 5.64667 v 12.98 c 0,9.5333 5.42666,13.0533 15.69333,13.0533 3.66667,0 8.43334,-0.9533 10.92667,-2.4933 z"
       style="font-style:normal;font-variant:normal;font-weight:900;font-stretch:normal;font-size:73.33333588px;font-family:'Work Sans';-inkscape-font-specification:'Work Sans Heavy';text-align:center;text-anchor:middle"
       id="path66" />
    <path
       d="m 248.54686,1065.6333 c 6.01333,0 10.26667,-2.86 12.39334,-8.5066 l 0.36666,7.7733 h 15.18 v -36.6667 h -16.86667 v 19.4334 c 0,3.8133 -1.1,5.5 -3.3,5.5 -1.90666,0 -2.78666,-1.1734 -2.78666,-4.0334 v -20.9 h -16.86667 v 24.7867 c 0,8.9467 4.25333,12.6133 11.88,12.6133 z"
       style="font-style:normal;font-variant:normal;font-weight:900;font-stretch:normal;font-size:73.33333588px;font-family:'Work Sans';-inkscape-font-specification:'Work Sans Heavy';text-align:center;text-anchor:middle"
       id="path68" />
    <path
       d="m 310.45052,1027.5 c -6.30667,0 -10.63334,3.1533 -12.76,8.7267 l -0.36667,-7.9934 h -15.18 V 1064.9 h 16.86667 v -19.36 c 0,-3.96 1.02666,-5.5733 3.44666,-5.5733 1.76,0 2.64,0.9533 2.64,4.0333 v 20.9 h 16.86667 v -25.08 c 0,-7.8467 -4.25333,-12.32 -11.51333,-12.32 z"
       style="font-style:normal;font-variant:normal;font-weight:900;font-stretch:normal;font-size:73.33333588px;font-family:'Work Sans';-inkscape-font-specification:'Work Sans Heavy';text-align:center;text-anchor:middle"
       id="path70" />
    <path
       d="m 352.62749,1054.4867 h -12.32 c -2.2,0 -3.00667,-0.5867 -3.00667,-1.54 0,-0.5867 0.29334,-0.9534 1.02667,-1.2467 2.34667,0.5133 5.13333,0.7333 8.28667,0.7333 12.83333,0 19.50667,-4.0333 19.50667,-12.3933 0,-4.9867 -2.34667,-8.5067 -6.96667,-10.4867 0.88,-2.2 3.37333,-3.8866 7.84667,-2.7866 l -0.88,-10.4134 c -8.50667,-0.9533 -11.66,5.5 -12.24667,11.66 -2.12667,-0.3666 -4.54667,-0.5133 -7.26,-0.5133 -12.83334,0 -19.50667,4.1067 -19.50667,12.54 0,4.5467 1.98,7.8467 5.86667,9.8267 -3.66667,1.2466 -6.08667,3.8866 -6.08667,7.6266 0,3.8867 1.83333,6.7467 6.23333,8.2134 -5.28,0.7333 -7.48,2.86 -7.48,6.16 0,5.8666 5.35334,8.8 19.72667,8.8 13.93334,0 21.85334,-4.4 21.85334,-14.74 0,-7.6267 -5.13334,-11.44 -14.59334,-11.44 z m -6.01333,-18.26 c 1.98,0 3.08,1.1 3.08,3.74 0,2.64 -1.1,3.74 -3.08,3.74 -1.98,0 -3.08,-1.1 -3.08,-3.74 0,-2.64 1.1,-3.74 3.08,-3.74 z m -1.02667,34.2466 c -4.98667,0 -7.99333,-0.5866 -7.99333,-1.8333 0,-0.66 0.44,-1.2467 1.46666,-1.2467 h 14.30001 c 1.02666,0 1.39333,0.3667 1.39333,0.9534 0,1.54 -3.08,2.1266 -9.16667,2.1266 z"
       style="font-style:normal;font-variant:normal;font-weight:900;font-stretch:normal;font-size:73.33333588px;font-family:'Work Sans';-inkscape-font-specification:'Work Sans Heavy';text-align:center;text-anchor:middle"
       id="path72" />
    <path
       d="m 407.34333,1027.5 c -12.24667,0 -20.46,6.9667 -20.46,19.0667 0,12.1 8.21333,19.0666 20.46,19.0666 12.24667,0 20.46,-6.9666 20.46,-19.0666 0,-12.1 -8.21333,-19.0667 -20.46,-19.0667 z m 0,11.3667 c 2.27333,0 3.52,1.54 3.52,7.7 0,6.16 -1.24667,7.7 -3.52,7.7 -2.27333,0 -3.52,-1.54 -3.52,-7.7 0,-6.16 1.24667,-7.7 3.52,-7.7 z"
       style="font-style:normal;font-variant:normal;font-weight:900;font-stretch:normal;font-size:73.33333588px;font-family:'Work Sans';-inkscape-font-specification:'Work Sans Heavy';text-align:center;text-anchor:middle"
       id="path74" />
    <path
       d="m 432.10479,1064.9 h 16.86666 v -19.2133 c 0,-3.96 1.1,-5.7934 3.52001,-5.7934 1.76,0 2.56666,1.0267 2.56666,4.3267 v 20.68 h 16.86667 v -25.08 c 0,-7.8467 -4.25333,-12.32 -11.51333,-12.32 -5.57334,0 -9.46,2.9333 -11.44001,8.2133 v -22.1466 h -16.86666 z"
       style="font-style:normal;font-variant:normal;font-weight:900;font-stretch:normal;font-size:73.33333588px;font-family:'Work Sans';-inkscape-font-specification:'Work Sans Heavy';text-align:center;text-anchor:middle"
       id="path76" />
    <path
       d="m 505.81511,1027.5 c -6.30667,0 -10.63333,3.1533 -12.76,8.7267 l -0.36667,-7.9934 h -15.18 V 1064.9 h 16.86667 v -19.36 c 0,-3.96 1.02667,-5.5733 3.44667,-5.5733 1.76,0 2.64,0.9533 2.64,4.0333 v 20.9 h 16.86667 v -25.08 c 0,-7.8467 -4.25334,-12.32 -11.51334,-12.32 z"
       style="font-style:normal;font-variant:normal;font-weight:900;font-stretch:normal;font-size:73.33333588px;font-family:'Work Sans';-inkscape-font-specification:'Work Sans Heavy';text-align:center;text-anchor:middle"
       id="path78" />
    <path
       d="m 561.33877,1045.3933 c 0,-10.7066 -7.04,-17.8933 -19.50667,-17.8933 -12.17333,0 -20.31333,6.8933 -20.31333,19.0667 0,12.1733 7.7,19.0666 20.97333,19.0666 8.21333,0 16.5,-3.4466 18.18667,-10.7066 L 547.1121,1051.26 c -0.51333,1.98 -1.90667,3.1533 -4.4,3.1533 -2.86,0 -4.54667,-0.8066 -5.06,-4.62 h 23.32 c 0.22,-0.9533 0.36667,-2.7866 0.36667,-4.4 z m -19.43334,-6.7466 c 2.42,0 3.37334,1.6866 3.66667,4.9133 h -7.92 c 0.44,-3.6667 1.76,-4.9133 4.25333,-4.9133 z"
       style="font-style:normal;font-variant:normal;font-weight:900;font-stretch:normal;font-size:73.33333588px;font-family:'Work Sans';-inkscape-font-specification:'Work Sans Heavy';text-align:center;text-anchor:middle"
       id="path80" />
    <path
       d="m 614.01502,1064.9 h 17.45333 l -15.76667,-48.4 h -20.53333 l -15.69333,48.4 h 17.01333 l 2.27333,-9.24 h 13.05334 z m -12.68667,-19.8733 1.98,-7.92 1.90667,-8.2134 h 0.22 l 3.88666,16.1334 z"
       style="font-style:normal;font-variant:normal;font-weight:900;font-stretch:normal;font-size:73.33333588px;font-family:'Work Sans';-inkscape-font-specification:'Work Sans Heavy';text-align:center;text-anchor:middle"
       id="path82" />
    <path
       d="m 661.78826,1064.9 h 18.33333 l -13.86,-22.2933 13.05333,-14.3734 h -18.11333 l -10.70667,12.98 v -27.6466 H 633.62826 V 1064.9 h 16.86666 v -7.1133 l 4.69334,-5.72 z"
       style="font-style:normal;font-variant:normal;font-weight:900;font-stretch:normal;font-size:73.33333588px;font-family:'Work Sans';-inkscape-font-specification:'Work Sans Heavy';text-align:center;text-anchor:middle"
       id="path84" />
    <path
       d="m 681.89644,1064.9 h 16.86667 v -17.6 c 0,-4.0333 2.86,-6.0867 7.26,-6.0867 1.98,0 3.74,0.3667 4.62,0.7334 l 1.39334,-13.5667 c -0.51334,-0.3667 -1.61334,-0.88 -3.81334,-0.88 -5.79333,0 -9.16667,3.8867 -10.78,9.9 l -0.36667,-9.1667 h -15.18 z"
       style="font-style:normal;font-variant:normal;font-weight:900;font-stretch:normal;font-size:73.33333588px;font-family:'Work Sans';-inkscape-font-specification:'Work Sans Heavy';text-align:center;text-anchor:middle"
       id="path86" />
    <path
       d="m 733.47617,1027.5 c -12.24666,0 -20.46,6.9667 -20.46,19.0667 0,12.1 8.21334,19.0666 20.46,19.0666 12.24667,0 20.46,-6.9666 20.46,-19.0666 0,-12.1 -8.21333,-19.0667 -20.46,-19.0667 z m 0,11.3667 c 2.27334,0 3.52,1.54 3.52,7.7 0,6.16 -1.24666,7.7 -3.52,7.7 -2.27333,0 -3.52,-1.54 -3.52,-7.7 0,-6.16 1.24667,-7.7 3.52,-7.7 z"
       style="font-style:normal;font-variant:normal;font-weight:900;font-stretch:normal;font-size:73.33333588px;font-family:'Work Sans';-inkscape-font-specification:'Work Sans Heavy';text-align:center;text-anchor:middle"
       id="path88" />
    <path
       d="m 786.5443,1027.5 c -6.30667,0 -10.63334,3.1533 -12.76,8.7267 l -0.36667,-7.9934 h -15.18 V 1064.9 h 16.86667 v -19.36 c 0,-3.96 1.02666,-5.5733 3.44666,-5.5733 1.76,0 2.64,0.9533 2.64,4.0333 v 20.9 h 16.86667 v -25.08 c 0,-7.8467 -4.25333,-12.32 -11.51333,-12.32 z"
       style="font-style:normal;font-variant:normal;font-weight:900;font-stretch:normal;font-size:73.33333588px;font-family:'Work Sans';-inkscape-font-specification:'Work Sans Heavy';text-align:center;text-anchor:middle"
       id="path90" />
    <path
       d="m 843.21259,1028.2333 h -16.5 l -3.66667,18.8467 -1.61333,8.6533 -1.39333,-8.58 -3.3,-18.92 h -18.40667 l 10.48667,27.28 4.62,10.78 -0.22,0.5867 c -0.58667,1.4667 -1.90667,1.98 -5.06,1.98 -3.52,0 -4.98667,-0.3667 -6.52667,-1.2467 l -3.08,10.6334 c 2.71333,1.4666 6.6,2.42 11.29333,2.42 11.88,0 17.74667,-5.28 22.58667,-19.8734 z"
       style="font-style:normal;font-variant:normal;font-weight:900;font-stretch:normal;font-size:73.33333588px;font-family:'Work Sans';-inkscape-font-specification:'Work Sans Heavy';text-align:center;text-anchor:middle"
       id="path92" />
    <path
       d="m 845.32094,1064.9 h 16.86667 v -19.2133 c 0,-3.96 1.1,-5.72 3.52,-5.72 1.76,0 2.56667,0.9533 2.56667,4.2533 v 20.68 h 16.86667 v -19.2133 c 0,-3.96 1.1,-5.72 3.52,-5.72 1.76,0 2.56666,0.9533 2.56666,4.2533 v 20.68 h 16.57334 l 0.29333,-25.08 c 0.0733,-7.8467 -4.25333,-12.32 -11.51333,-12.32 -5.72,0 -9.82667,2.64 -12.1,7.3333 -1.54001,-4.6933 -5.28001,-7.3333 -10.85334,-7.3333 -6.30667,0 -10.63333,3.1533 -12.76,8.7267 l -0.36667,-7.9934 h -15.18 z"
       style="font-style:normal;font-variant:normal;font-weight:900;font-stretch:normal;font-size:73.33333588px;font-family:'Work Sans';-inkscape-font-specification:'Work Sans Heavy';text-align:center;text-anchor:middle"
       id="path94" />
  </g>
</svg>
